{
    "asset" : {
        "generator" : "Khronos glTF Blender I/O v1.7.33",
        "version" : "2.0"
    },
    "extensionsUsed" : [
        "KHR_lights_punctual"
    ],
    "extensionsRequired" : [
        "KHR_lights_punctual"
    ],
    "extensions" : {
        "KHR_lights_punctual" : {
            "lights" : [
                {
                    "color" : [
                        1,
                        1,
                        1
                    ],
                    "intensity" : 1,
                    "type" : "directional",
                    "name" : "Sun"
                }
            ]
        }
    },
    "scene" : 0,
    "scenes" : [
        {
            "name" : "Scene",
            "nodes" : [
                1,
                2,
                3,
                5,
                6,
                7,
                8,
                9,
                10,
                11,
                12,
                13,
                14,
                15,
                16,
                17,
                18,
                19,
                20,
                21,
                22,
                23,
                24,
                25,
                26,
                27,
                28,
                29,
                30,
                31,
                32
            ]
        }
    ],
    "nodes" : [
        {
            "camera" : 0,
            "name" : "Camera_Orientation",
            "rotation" : [
                -0.7071067690849304,
                0,
                0,
                0.7071067690849304
            ]
        },
        {
            "children" : [
                0
            ],
            "name" : "Camera",
            "rotation" : [
                0.4766758680343628,
                0.32224366068840027,
                -0.19327838718891144,
                0.7947217226028442
            ],
            "scale" : [
                0.8748502135276794,
                0.8748502135276794,
                0.8748502135276794
            ],
            "translation" : [
                21.253637313842773,
                14.108885765075684,
                18.32289695739746
            ]
        },
        {
            "mesh" : 0,
            "name" : "Plane",
            "translation" : [
                0.08465925604104996,
                0,
                -0.11287901550531387
            ]
        },
        {
            "extras" : {
                "ColorR" : 0.0,
                "ColorG" : 0.0,
                "ColorB" : 1.0,
                "Type" : "blue",
                "id" : 0,
                "nextId" : 1
            },
            "mesh" : 1,
            "name" : "Space",
            "translation" : [
                -8.865996360778809,
                0.05000000074505806,
                -11.383401870727539
            ]
        },
        {
            "extensions" : {
                "KHR_lights_punctual" : {
                    "light" : 0
                }
            },
            "name" : "Sun_Orientation",
            "rotation" : [
                -0.7071067690849304,
                0,
                0,
                0.7071067690849304
            ]
        },
        {
            "children" : [
                4
            ],
            "name" : "Sun"
        },
        {
            "extras" : {
                "ColorR" : 0.0,
                "ColorG" : 0.0,
                "ColorB" : 1.0,
                "Type" : "blue",
                "id" : 1,
                "nextId" : 2
            },
            "mesh" : 1,
            "name" : "Space.001",
            "translation" : [
                -6.941409111022949,
                0.05000000074505806,
                -12.34964656829834
            ]
        },
        {
            "extras" : {
                "ColorR" : 0.0,
                "ColorG" : 0.0,
                "ColorB" : 1.0,
                "Type" : "blue",
                "id" : 2,
                "nextId" : 3
            },
            "mesh" : 1,
            "name" : "Space.002",
            "translation" : [
                -4.900557041168213,
                0.05000000074505806,
                -12.717631340026855
            ]
        },
        {
            "extras" : {
                "ColorR" : 0.0,
                "ColorG" : 0.0,
                "ColorB" : 1.0,
                "Type" : "blue",
                "id" : 3,
                "nextId" : 4
            },
            "mesh" : 1,
            "name" : "Space.003",
            "translation" : [
                -2.9387195110321045,
                0.05000000074505806,
                -12.594593048095703
            ]
        },
        {
            "extras" : {
                "ColorR" : 1.0,
                "ColorG" : 0.0,
                "ColorB" : 0.0,
                "Type" : "red",
                "id" : 4,
                "nextId" : 5
            },
            "mesh" : 1,
            "name" : "Space.004",
            "translation" : [
                -0.8504579067230225,
                0.05000000074505806,
                -11.996334075927734
            ]
        },
        {
            "extras" : {
                "ColorR" : 0.0,
                "ColorG" : 0.0,
                "ColorB" : 1.0,
                "Type" : "blue",
                "id" : 5,
                "nextId" : 7
            },
            "mesh" : 1,
            "name" : "Space.005",
            "translation" : [
                1.1813642978668213,
                0.05000000074505806,
                -11.14296817779541
            ]
        },
        {
            "extras" : {
                "ColorR" : 0.0,
                "ColorG" : 0.0,
                "ColorB" : 1.0,
                "Type" : "blue",
                "id" : 7,
                "nextId" : 8
            },
            "mesh" : 1,
            "name" : "Space.006",
            "translation" : [
                2.8474583625793457,
                0.05000000074505806,
                -9.883237838745117
            ]
        },
        {
            "extras" : {
                "ColorR" : 0.0,
                "ColorG" : 0.0,
                "ColorB" : 1.0,
                "Type" : "blue",
                "id" : 8,
                "nextId" : 9
            },
            "mesh" : 1,
            "name" : "Space.007",
            "translation" : [
                4.310369968414307,
                0.05000000074505806,
                -8.3390531539917
            ]
        },
        {
            "extras" : {
                "ColorR" : 0.0,
                "ColorG" : 0.0,
                "ColorB" : 1.0,
                "Type" : "blue",
                "id" : 9,
                "nextId" : 10
            },
            "mesh" : 1,
            "name" : "Space.008",
            "translation" : [
                5.732645511627197,
                0.05000000074505806,
                -6.876140594482422
            ]
        },
        {
            "extras" : {
                "ColorR" : 0.0,
                "ColorG" : 0.0,
                "ColorB" : 1.0,
                "Type" : "blue",
                "id" : 10,
                "nextId" : 11
            },
            "mesh" : 1,
            "name" : "Space.009",
            "translation" : [
                7.236194133758545,
                0.05000000074505806,
                -5.210046291351318
            ]
        },
        {
            "extras" : {
                "ColorR" : 0.0,
                "ColorG" : 0.0,
                "ColorB" : 1.0,
                "Type" : "blue",
                "id" : 11,
                "nextId" : 12
            },
            "mesh" : 1,
            "name" : "Space.010",
            "translation" : [
                8.658470153808594,
                0.05000000074505806,
                -3.6252248287200928
            ]
        },
        {
            "extras" : {
                "ColorR" : 0.0,
                "ColorG" : 0.0,
                "ColorB" : 1.0,
                "Type" : "blue",
                "id" : 12,
                "nextId" : 13
            },
            "mesh" : 1,
            "name" : "Space.011",
            "translation" : [
                9.308652877807617,
                0.05000000074505806,
                -1.6340389251708984
            ]
        },
        {
            "extras" : {
                "ColorR" : 0.0,
                "ColorG" : 0.0,
                "ColorB" : 1.0,
                "Type" : "blue",
                "id" : 13,
                "nextId" : 14
            },
            "mesh" : 1,
            "name" : "Space.012",
            "translation" : [
                9.389925956726074,
                0.05000000074505806,
                0.3977833390235901
            ]
        },
        {
            "extras" : {
                "ColorR" : 1.0,
                "ColorG" : 0.0,
                "ColorB" : 0.0,
                "Type" : "red",
                "id" : 14,
                "nextId" : 15
            },
            "mesh" : 1,
            "name" : "Space.013",
            "translation" : [
                9.349288940429688,
                0.05000000074505806,
                2.3889691829681396
            ]
        },
        {
            "extras" : {
                "ColorR" : 0.0,
                "ColorG" : 0.0,
                "ColorB" : 1.0,
                "Type" : "blue",
                "id" : 15,
                "nextId" : 16
            },
            "mesh" : 1,
            "name" : "Space.014",
            "translation" : [
                8.01668930053711,
                0.05000000074505806,
                4.133106708526611
            ]
        },
        {
            "extras" : {
                "ColorR" : 0.0,
                "ColorG" : 0.0,
                "ColorB" : 1.0,
                "Type" : "blue",
                "id" : 16,
                "nextId" : 17
            },
            "mesh" : 1,
            "name" : "Space.015",
            "translation" : [
                6.135372161865234,
                0.05000000074505806,
                5.014974117279053
            ]
        },
        {
            "extras" : {
                "ColorR" : 0.0,
                "ColorG" : 0.0,
                "ColorB" : 1.0,
                "Type" : "blue",
                "id" : 17,
                "nextId" : 18
            },
            "mesh" : 1,
            "name" : "Space.016",
            "translation" : [
                4.116875648498535,
                0.05000000074505806,
                5.544094562530518
            ]
        },
        {
            "extras" : {
                "ColorR" : 0.0,
                "ColorG" : 0.0,
                "ColorB" : 1.0,
                "Type" : "blue",
                "id" : 18,
                "nextId" : 19
            },
            "mesh" : 1,
            "name" : "Space.017",
            "translation" : [
                2.078782558441162,
                0.05000000074505806,
                5.4657063484191895
            ]
        },
        {
            "extras" : {
                "ColorR" : 0.0,
                "ColorG" : 0.0,
                "ColorB" : 1.0,
                "Type" : "blue",
                "id" : 19,
                "nextId" : 20
            },
            "mesh" : 1,
            "name" : "Space.018",
            "translation" : [
                0.04696035385131836,
                0.05000000074505806,
                4.731992721557617
            ]
        },
        {
            "extras" : {
                "ColorR" : 0.0,
                "ColorG" : 0.0,
                "ColorB" : 1.0,
                "Type" : "blue",
                "id" : 20,
                "nextId" : 21
            },
            "mesh" : 1,
            "name" : "Space.019",
            "translation" : [
                -1.7026643753051758,
                0.05000000074505806,
                3.518543243408203
            ]
        },
        {
            "extras" : {
                "ColorR" : 0.0,
                "ColorG" : 0.0,
                "ColorB" : 1.0,
                "Type" : "blue",
                "id" : 21,
                "nextId" : 22
            },
            "mesh" : 1,
            "name" : "Space.020",
            "translation" : [
                -3.2547507286071777,
                0.05000000074505806,
                2.0511159896850586
            ]
        },
        {
            "extras" : {
                "ColorR" : 1.0,
                "ColorG" : 0.0,
                "ColorB" : 0.0,
                "Type" : "red",
                "id" : 22,
                "nextId" : 23
            },
            "mesh" : 1,
            "name" : "Space.021",
            "translation" : [
                -4.722177982330322,
                0.05000000074505806,
                0.6683480143547058
            ]
        },
        {
            "extras" : {
                "ColorR" : 0.0,
                "ColorG" : 0.0,
                "ColorB" : 1.0,
                "Type" : "blue",
                "id" : 23,
                "nextId" : 24
            },
            "mesh" : 1,
            "name" : "Space.022",
            "translation" : [
                -6.274264335632324,
                0.05000000074505806,
                -0.7426396608352661
            ]
        },
        {
            "extras" : {
                "ColorR" : 0.0,
                "ColorG" : 0.0,
                "ColorB" : 1.0,
                "Type" : "blue",
                "id" : 24,
                "nextId" : 25
            },
            "mesh" : 1,
            "name" : "Space.023",
            "translation" : [
                -7.628812313079834,
                0.05000000074505806,
                -2.3229458332061768
            ]
        },
        {
            "extras" : {
                "ColorR" : 0.0,
                "ColorG" : 0.0,
                "ColorB" : 1.0,
                "Type" : "blue",
                "id" : 0,
                "nextId" : 1
            },
            "mesh" : 1,
            "name" : "25",
            "translation" : [
                -8.983360290527344,
                0.05000000074505806,
                -4.016131401062012
            ]
        },
        {
            "extras" : {
                "ColorR" : 0.0,
                "ColorG" : 0.0,
                "ColorB" : 1.0,
                "Type" : "blue",
                "id" : 26,
                "nextId" : 27
            },
            "mesh" : 1,
            "name" : "Space.025",
            "translation" : [
                -10.39434814453125,
                0.05000000074505806,
                -5.62465763092041
            ]
        },
        {
            "extras" : {
                "ColorR" : 0.0,
                "ColorG" : 0.0,
                "ColorB" : 1.0,
                "Type" : "blue",
                "id" : 27,
                "nextId" : 28
            },
            "mesh" : 1,
            "name" : "Space.026",
            "translation" : [
                -10.789424896240234,
                0.05000000074505806,
                -7.7411394119262695
            ]
        },
        {
            "extras" : {
                "ColorR" : 0.0,
                "ColorG" : 0.0,
                "ColorB" : 1.0,
                "Type" : "blue",
                "id" : 28,
                "nextId" : 0
            },
            "mesh" : 1,
            "name" : "Space.027",
            "translation" : [
                -10.281468391418457,
                0.05000000074505806,
                -9.688302993774414
            ]
        }
    ],
    "cameras" : [
        {
            "name" : "Camera",
            "perspective" : {
                "aspectRatio" : 1.7777777777777777,
                "yfov" : 0.39959652046304894,
                "zfar" : 100,
                "znear" : 0.10000000149011612
            },
            "type" : "perspective"
        }
    ],
    "materials" : [
        {
            "doubleSided" : true,
            "name" : "Ground Shader",
            "pbrMetallicRoughness" : {
                "baseColorFactor" : [
                    0.12315045297145844,
                    0.8000000715255737,
                    0.10434013605117798,
                    1
                ],
                "metallicFactor" : 0
            }
        },
        {
            "alphaMode" : "BLEND",
            "doubleSided" : true,
            "name" : "Space",
            "pbrMetallicRoughness" : {
                "metallicFactor" : 0,
                "roughnessFactor" : 0.5
            }
        }
    ],
    "meshes" : [
        {
            "name" : "Plane",
            "primitives" : [
                {
                    "attributes" : {
                        "POSITION" : 0,
                        "NORMAL" : 1,
                        "TEXCOORD_0" : 2
                    },
                    "indices" : 3,
                    "material" : 0
                }
            ]
        },
        {
            "name" : "Plane.001",
            "primitives" : [
                {
                    "attributes" : {
                        "POSITION" : 4,
                        "NORMAL" : 5,
                        "TEXCOORD_0" : 6
                    },
                    "indices" : 7,
                    "material" : 1
                }
            ]
        }
    ],
    "accessors" : [
        {
            "bufferView" : 0,
            "componentType" : 5126,
            "count" : 8,
            "max" : [
                40,
                0,
                40
            ],
            "min" : [
                -40,
                0,
                -40
            ],
            "type" : "VEC3"
        },
        {
            "bufferView" : 1,
            "componentType" : 5126,
            "count" : 8,
            "type" : "VEC3"
        },
        {
            "bufferView" : 2,
            "componentType" : 5126,
            "count" : 8,
            "type" : "VEC2"
        },
        {
            "bufferView" : 3,
            "componentType" : 5123,
            "count" : 12,
            "type" : "SCALAR"
        },
        {
            "bufferView" : 4,
            "componentType" : 5126,
            "count" : 4,
            "max" : [
                1,
                0,
                1
            ],
            "min" : [
                -1,
                0,
                -1
            ],
            "type" : "VEC3"
        },
        {
            "bufferView" : 5,
            "componentType" : 5126,
            "count" : 4,
            "type" : "VEC3"
        },
        {
            "bufferView" : 6,
            "componentType" : 5126,
            "count" : 4,
            "type" : "VEC2"
        },
        {
            "bufferView" : 7,
            "componentType" : 5123,
            "count" : 6,
            "type" : "SCALAR"
        }
    ],
    "bufferViews" : [
        {
            "buffer" : 0,
            "byteLength" : 96,
            "byteOffset" : 0
        },
        {
            "buffer" : 0,
            "byteLength" : 96,
            "byteOffset" : 96
        },
        {
            "buffer" : 0,
            "byteLength" : 64,
            "byteOffset" : 192
        },
        {
            "buffer" : 0,
            "byteLength" : 24,
            "byteOffset" : 256
        },
        {
            "buffer" : 0,
            "byteLength" : 48,
            "byteOffset" : 280
        },
        {
            "buffer" : 0,
            "byteLength" : 48,
            "byteOffset" : 328
        },
        {
            "buffer" : 0,
            "byteLength" : 32,
            "byteOffset" : 376
        },
        {
            "buffer" : 0,
            "byteLength" : 12,
            "byteOffset" : 408
        }
    ],
    "buffers" : [
        {
            "byteLength" : 420,
            "uri" : "data:application/octet-stream;base64,"
        }
    ]
}
